<svg xmlns="http://www.w3.org/2000/svg" xmlns:xlink="http://www.w3.org/1999/xlink" width="800" zoomAndPan="magnify" viewBox="0 0 600 374.999991" height="500" preserveAspectRatio="xMidYMid meet" version="1.0"><defs><g/><clipPath id="b287896a92"><path d="M 54.027344 160.175781 L 63.777344 160.175781 L 63.777344 165.351562 L 54.027344 165.351562 Z M 54.027344 160.175781 " clip-rule="nonzero"/></clipPath><clipPath id="f4c02ec500"><path d="M 54.027344 160.175781 L 63.777344 160.175781 L 63.777344 165 L 54.027344 165 Z M 54.027344 160.175781 " clip-rule="nonzero"/></clipPath><clipPath id="fd6c97578a"><path d="M 25.199219 129.335938 L 76.199219 129.335938 L 76.199219 168.335938 L 25.199219 168.335938 Z M 25.199219 129.335938 " clip-rule="nonzero"/></clipPath></defs><g fill="#000000" fill-opacity="1"><g transform="translate(390.737852, 230.390911)"><g><path d="M 6.234375 0 L 6.234375 -70.015625 L 19.375 -70.015625 L 19.375 0 Z M 6.234375 0 "/></g></g></g><g fill="#000000" fill-opacity="1"><g transform="translate(39.266822, 209.459871)"><g><path d="M 6.234375 0 L 6.234375 -29.0625 C 6.234375 -32.894531 7.160156 -36.410156 9.015625 -39.609375 C 10.867188 -42.804688 13.535156 -45.347656 17.015625 -47.234375 C 20.503906 -49.128906 24.710938 -50.078125 29.640625 -50.078125 C 32.003906 -50.078125 34.191406 -49.800781 36.203125 -49.25 C 38.222656 -48.707031 40.09375 -47.925781 41.8125 -46.90625 C 43.539062 -45.882812 45.046875 -44.671875 46.328125 -43.265625 L 46.421875 -43.265625 C 47.765625 -44.671875 49.300781 -45.882812 51.03125 -46.90625 C 52.757812 -47.925781 54.644531 -48.707031 56.6875 -49.25 C 58.738281 -49.800781 60.945312 -50.078125 63.3125 -50.078125 C 68.226562 -50.078125 72.429688 -49.128906 75.921875 -47.234375 C 79.410156 -45.347656 82.082031 -42.804688 83.9375 -39.609375 C 85.789062 -36.410156 86.71875 -32.894531 86.71875 -29.0625 L 86.71875 0 L 73.578125 0 L 73.578125 -29.0625 C 73.578125 -30.851562 73.113281 -32.484375 72.1875 -33.953125 C 71.257812 -35.421875 70.023438 -36.601562 68.484375 -37.5 C 66.953125 -38.394531 65.226562 -38.84375 63.3125 -38.84375 C 61.457031 -38.84375 59.742188 -38.394531 58.171875 -37.5 C 56.609375 -36.601562 55.363281 -35.421875 54.4375 -33.953125 C 53.507812 -32.484375 53.046875 -30.851562 53.046875 -29.0625 L 53.046875 0 L 39.90625 0 L 39.90625 -29.0625 C 39.90625 -30.851562 39.441406 -32.484375 38.515625 -33.953125 C 37.585938 -35.421875 36.351562 -36.601562 34.8125 -37.5 C 33.28125 -38.394531 31.554688 -38.84375 29.640625 -38.84375 C 27.785156 -38.84375 26.070312 -38.394531 24.5 -37.5 C 22.9375 -36.601562 21.691406 -35.421875 20.765625 -33.953125 C 19.835938 -32.484375 19.375 -30.851562 19.375 -29.0625 L 19.375 0 Z M 6.234375 0 "/></g></g></g><g fill="#000000" fill-opacity="1"><g transform="translate(128.65564, 209.459871)"><g><path d="M 29.734375 1.15625 C 24.679688 1.15625 20.171875 0.0195312 16.203125 -2.25 C 12.242188 -4.519531 9.113281 -7.585938 6.8125 -11.453125 C 4.507812 -15.328125 3.359375 -19.660156 3.359375 -24.453125 C 3.359375 -29.253906 4.507812 -33.585938 6.8125 -37.453125 C 9.113281 -41.328125 12.242188 -44.398438 16.203125 -46.671875 C 20.171875 -48.941406 24.679688 -50.078125 29.734375 -50.078125 C 34.785156 -50.078125 39.289062 -48.941406 43.25 -46.671875 C 47.21875 -44.398438 50.351562 -41.328125 52.65625 -37.453125 C 54.957031 -33.585938 56.109375 -29.253906 56.109375 -24.453125 C 56.109375 -19.660156 54.957031 -15.328125 52.65625 -11.453125 C 50.351562 -7.585938 47.21875 -4.519531 43.25 -2.25 C 39.289062 0.0195312 34.785156 1.15625 29.734375 1.15625 Z M 29.734375 -10.078125 C 32.421875 -10.078125 34.738281 -10.710938 36.6875 -11.984375 C 38.632812 -13.265625 40.132812 -14.992188 41.1875 -17.171875 C 42.25 -19.347656 42.78125 -21.773438 42.78125 -24.453125 C 42.78125 -27.140625 42.25 -29.570312 41.1875 -31.75 C 40.132812 -33.925781 38.632812 -35.648438 36.6875 -36.921875 C 34.738281 -38.203125 32.421875 -38.84375 29.734375 -38.84375 C 27.046875 -38.84375 24.726562 -38.203125 22.78125 -36.921875 C 20.832031 -35.648438 19.328125 -33.925781 18.265625 -31.75 C 17.210938 -29.570312 16.6875 -27.140625 16.6875 -24.453125 C 16.6875 -21.773438 17.210938 -19.347656 18.265625 -17.171875 C 19.328125 -14.992188 20.832031 -13.265625 22.78125 -11.984375 C 24.726562 -10.710938 27.046875 -10.078125 29.734375 -10.078125 Z M 29.734375 -10.078125 "/></g></g></g><g fill="#000000" fill-opacity="1"><g transform="translate(184.571338, 209.459871)"><g><path d="M 6.234375 0 L 6.234375 -28.109375 C 6.234375 -32.128906 7.175781 -35.800781 9.0625 -39.125 C 10.945312 -42.457031 13.679688 -45.113281 17.265625 -47.09375 C 20.847656 -49.082031 25.132812 -50.078125 30.125 -50.078125 C 35.175781 -50.078125 39.472656 -49.082031 43.015625 -47.09375 C 46.566406 -45.113281 49.285156 -42.457031 51.171875 -39.125 C 53.054688 -35.800781 54 -32.128906 54 -28.109375 L 54 0 L 40.859375 0 L 40.859375 -28.109375 C 40.859375 -30.085938 40.378906 -31.890625 39.421875 -33.515625 C 38.460938 -35.148438 37.164062 -36.445312 35.53125 -37.40625 C 33.90625 -38.363281 32.101562 -38.84375 30.125 -38.84375 C 28.132812 -38.84375 26.320312 -38.363281 24.6875 -37.40625 C 23.0625 -36.445312 21.769531 -35.148438 20.8125 -33.515625 C 19.851562 -31.890625 19.375 -30.085938 19.375 -28.109375 L 19.375 0 Z M 6.234375 0 "/></g></g></g><g fill="#000000" fill-opacity="1"><g transform="translate(241.254331, 209.459871)"><g><path d="M 29.15625 1.15625 C 25.0625 1.15625 21.398438 0.5 18.171875 -0.8125 C 14.941406 -2.125 12.238281 -3.976562 10.0625 -6.375 C 7.894531 -8.769531 6.234375 -11.582031 5.078125 -14.8125 C 3.929688 -18.039062 3.359375 -21.578125 3.359375 -25.421875 C 3.359375 -30.273438 4.332031 -34.539062 6.28125 -38.21875 C 8.226562 -41.894531 10.976562 -44.789062 14.53125 -46.90625 C 18.082031 -49.019531 22.222656 -50.078125 26.953125 -50.078125 C 29.003906 -50.078125 30.972656 -49.785156 32.859375 -49.203125 C 34.742188 -48.628906 36.453125 -47.796875 37.984375 -46.703125 C 39.515625 -45.617188 40.757812 -44.34375 41.71875 -42.875 L 41.828125 -42.875 L 41.828125 -70.015625 L 54.96875 -70.015625 L 54.96875 -25.421875 C 54.96875 -20.046875 53.910156 -15.359375 51.796875 -11.359375 C 49.679688 -7.367188 46.707031 -4.285156 42.875 -2.109375 C 39.039062 0.0664062 34.46875 1.15625 29.15625 1.15625 Z M 29.15625 -10.078125 C 31.78125 -10.078125 34.019531 -10.710938 35.875 -11.984375 C 37.726562 -13.265625 39.148438 -14.992188 40.140625 -17.171875 C 41.128906 -19.347656 41.625 -21.773438 41.625 -24.453125 C 41.625 -27.140625 41.128906 -29.570312 40.140625 -31.75 C 39.148438 -33.925781 37.726562 -35.648438 35.875 -36.921875 C 34.019531 -38.203125 31.78125 -38.84375 29.15625 -38.84375 C 26.601562 -38.84375 24.378906 -38.203125 22.484375 -36.921875 C 20.597656 -35.648438 19.160156 -33.925781 18.171875 -31.75 C 17.179688 -29.570312 16.6875 -27.140625 16.6875 -24.453125 C 16.6875 -21.773438 17.179688 -19.347656 18.171875 -17.171875 C 19.160156 -14.992188 20.597656 -13.265625 22.484375 -11.984375 C 24.378906 -10.710938 26.601562 -10.078125 29.15625 -10.078125 Z M 29.15625 -10.078125 "/></g></g></g><g fill="#000000" fill-opacity="1"><g transform="translate(298.416871, 209.459871)"><g><path d="M 25.515625 1.15625 C 21.035156 1.15625 17.132812 0.00390625 13.8125 -2.296875 C 10.488281 -4.597656 7.914062 -7.679688 6.09375 -11.546875 C 4.269531 -15.421875 3.359375 -19.691406 3.359375 -24.359375 C 3.359375 -29.160156 4.394531 -33.507812 6.46875 -37.40625 C 8.550781 -41.3125 11.539062 -44.398438 15.4375 -46.671875 C 19.34375 -48.941406 24.015625 -50.078125 29.453125 -50.078125 C 34.953125 -50.078125 39.585938 -48.925781 43.359375 -46.625 C 47.128906 -44.320312 50.003906 -41.21875 51.984375 -37.3125 C 53.972656 -33.414062 54.96875 -29.097656 54.96875 -24.359375 L 54.96875 0 L 41.828125 0 L 41.828125 -8.15625 L 41.625 -8.15625 C 40.664062 -6.425781 39.46875 -4.859375 38.03125 -3.453125 C 36.59375 -2.046875 34.847656 -0.925781 32.796875 -0.09375 C 30.753906 0.738281 28.328125 1.15625 25.515625 1.15625 Z M 29.25 -10.078125 C 31.8125 -10.078125 34.019531 -10.710938 35.875 -11.984375 C 37.726562 -13.265625 39.148438 -15.007812 40.140625 -17.21875 C 41.128906 -19.425781 41.625 -21.875 41.625 -24.5625 C 41.625 -27.238281 41.128906 -29.648438 40.140625 -31.796875 C 39.148438 -33.941406 37.726562 -35.648438 35.875 -36.921875 C 34.019531 -38.203125 31.8125 -38.84375 29.25 -38.84375 C 26.632812 -38.84375 24.378906 -38.203125 22.484375 -36.921875 C 20.597656 -35.648438 19.160156 -33.941406 18.171875 -31.796875 C 17.179688 -29.648438 16.6875 -27.238281 16.6875 -24.5625 C 16.6875 -21.875 17.179688 -19.425781 18.171875 -17.21875 C 19.160156 -15.007812 20.597656 -13.265625 22.484375 -11.984375 C 24.378906 -10.710938 26.632812 -10.078125 29.25 -10.078125 Z M 29.25 -10.078125 "/></g></g></g><g fill="#000000" fill-opacity="1"><g transform="translate(356.05897, 209.459871)"><g><path d="M 30.125 1.15625 C 25.132812 1.15625 20.847656 0.164062 17.265625 -1.8125 C 13.679688 -3.800781 10.945312 -6.457031 9.0625 -9.78125 C 7.175781 -13.101562 6.234375 -16.78125 6.234375 -20.8125 L 6.234375 -48.921875 L 19.375 -48.921875 L 19.375 -20.8125 C 19.375 -18.832031 19.851562 -17.023438 20.8125 -15.390625 C 21.769531 -13.765625 23.0625 -12.472656 24.6875 -11.515625 C 26.320312 -10.554688 28.132812 -10.078125 30.125 -10.078125 C 32.101562 -10.078125 33.90625 -10.554688 35.53125 -11.515625 C 37.164062 -12.472656 38.460938 -13.765625 39.421875 -15.390625 C 40.378906 -17.023438 40.859375 -18.832031 40.859375 -20.8125 L 40.859375 -48.921875 L 54 -48.921875 L 54 -20.8125 C 54 -16.78125 53.054688 -13.101562 51.171875 -9.78125 C 49.285156 -6.457031 46.566406 -3.800781 43.015625 -1.8125 C 39.472656 0.164062 35.175781 1.15625 30.125 1.15625 Z M 30.125 1.15625 "/></g></g></g><g clip-path="url(#b287896a92)"><path fill="#000000" d="M 62.085938 142.875 L 62.246094 142.890625 C 62.9375 142.929688 63.5625 143.164062 64.125 143.59375 C 65.070312 144.480469 65.675781 145.320312 65.941406 146.117188 L 67.710938 146.722656 C 66.535156 147.265625 65.855469 147.789062 65.675781 148.296875 L 65.445312 148.757812 C 65.082031 150.082031 64.757812 151.183594 64.464844 152.050781 C 64.125 152.957031 63.796875 153.738281 63.476562 154.394531 C 62.617188 156.070312 61.753906 157.296875 60.882812 158.066406 C 59.679688 159.234375 57.800781 160.054688 55.25 160.535156 C 54.714844 160.648438 53.824219 160.714844 52.570312 160.738281 C 51.042969 160.738281 49.410156 160.652344 47.675781 160.472656 L 47.042969 160.574219 C 46.496094 160.714844 45.546875 161.097656 44.195312 161.726562 C 43.910156 161.804688 43.703125 161.816406 43.578125 161.773438 C 39.53125 164.140625 37.191406 165.304688 36.5625 165.265625 C 36.441406 165.246094 36.496094 165.128906 36.726562 164.914062 L 36.308594 164.960938 C 36.507812 164.605469 36.476562 164.398438 36.210938 164.335938 C 37.246094 163.828125 38.269531 163.28125 39.285156 162.695312 C 41.792969 161.160156 43.285156 160.195312 43.757812 159.792969 C 45.515625 158.570312 47.617188 156.824219 50.058594 154.554688 C 51.613281 153.078125 53.070312 151.554688 54.4375 149.976562 C 55.65625 148.613281 57.070312 146.773438 58.683594 144.464844 L 59.1875 143.980469 C 59.816406 143.285156 60.78125 142.917969 62.085938 142.875 " fill-opacity="1" fill-rule="nonzero"/></g><g clip-path="url(#f4c02ec500)"><path fill="#000000" d="M 52.402344 159.121094 L 56.046875 159.78125 C 57 161.160156 57.714844 161.992188 58.195312 162.273438 L 58.792969 162.582031 C 58.878906 162.628906 59.066406 162.691406 59.351562 162.765625 C 59.550781 162.816406 60.175781 162.871094 61.230469 162.9375 C 61.457031 162.96875 61.699219 163.042969 61.960938 163.160156 C 62.28125 163.316406 62.765625 163.777344 63.410156 164.542969 C 62.507812 163.910156 60.953125 163.554688 58.742188 163.476562 C 57.871094 163.492188 57.246094 163.5625 56.863281 163.6875 C 56.609375 163.761719 56.386719 163.84375 56.203125 163.925781 C 56.074219 163.988281 55.773438 164.152344 55.308594 164.425781 C 55.1875 164.480469 55.117188 164.503906 55.097656 164.496094 C 55.023438 164.472656 55.003906 164.421875 55.035156 164.339844 L 55.503906 163.671875 C 55.332031 163.605469 54.964844 163.769531 54.398438 164.167969 C 54.363281 164.164062 54.347656 164.144531 54.34375 164.109375 C 54.351562 164.039062 54.375 163.972656 54.414062 163.910156 C 54.640625 163.582031 54.851562 163.347656 55.046875 163.210938 C 55.144531 163.125 55.539062 162.960938 56.230469 162.71875 C 56.308594 162.675781 56.332031 162.621094 56.300781 162.546875 C 56.257812 162.464844 56.195312 162.386719 56.113281 162.320312 C 55.335938 161.742188 54.425781 161.015625 53.382812 160.140625 C 53.082031 159.863281 52.753906 159.527344 52.402344 159.121094 " fill-opacity="1" fill-rule="nonzero"/></g><g clip-path="url(#fd6c97578a)"><path fill="#820303" d="M 62.3125 129.726562 L 62.234375 129.726562 C 62.136719 129.734375 62.054688 129.757812 61.992188 129.796875 L 61.582031 130.121094 C 61.613281 130.3125 62.058594 130.664062 62.917969 131.175781 L 61.980469 131.617188 C 62.59375 131.996094 62.871094 132.21875 62.816406 132.28125 C 62.820312 132.316406 62.804688 132.34375 62.765625 132.367188 L 61.753906 132.636719 C 62.851562 132.949219 63.445312 133.171875 63.523438 133.296875 C 62.785156 133.476562 62.441406 133.648438 62.492188 133.820312 C 63.695312 134.316406 64.277344 134.65625 64.230469 134.832031 L 62.925781 135.742188 L 64.28125 136.433594 C 62.519531 137.296875 59.875 139.832031 56.351562 144.035156 L 48.261719 150 L 45.472656 152.738281 C 43.875 154.378906 42.617188 155.824219 41.703125 157.066406 C 41.585938 157.234375 42.285156 157.054688 43.804688 156.523438 L 43.511719 157.449219 C 42.574219 157.921875 41.96875 158.261719 41.695312 158.457031 C 40.890625 159.503906 40.125 160.21875 39.398438 160.597656 L 25.53125 167.007812 C 25.324219 167.597656 25.78125 168 26.898438 168.210938 C 28.53125 167.972656 30.339844 167.417969 32.316406 166.546875 L 45.789062 160.339844 L 46.832031 160.0625 C 48.265625 159.722656 49.230469 159.550781 49.730469 159.542969 C 52.582031 160.023438 54.964844 160.234375 56.878906 160.171875 C 58.078125 160.125 59.351562 159.90625 60.695312 159.511719 C 64.335938 158.339844 67.125 156.640625 69.058594 154.40625 C 70.761719 152.4375 71.835938 150.625 72.28125 148.96875 C 72.773438 147.714844 72.851562 145.398438 72.519531 142.027344 C 72.589844 141.902344 72.742188 141.824219 72.976562 141.792969 C 74.289062 141.878906 75.183594 141.855469 75.660156 141.71875 C 76.105469 141.617188 76.324219 141.390625 76.316406 141.039062 C 76.195312 140.398438 74.960938 139.375 72.609375 137.96875 C 72.585938 136.9375 71.449219 135.402344 69.207031 133.363281 C 65.070312 130.683594 62.773438 129.472656 62.3125 129.726562 " fill-opacity="1" fill-rule="nonzero"/></g><g fill="#000000" fill-opacity="1"><g transform="translate(412.80994, 209.459871)"><g><path d="M 31.65625 0 C 26.601562 0 22.09375 -1.082031 18.125 -3.25 C 14.164062 -5.425781 11.035156 -8.351562 8.734375 -12.03125 C 6.429688 -15.707031 5.28125 -19.847656 5.28125 -24.453125 C 5.28125 -29.054688 6.429688 -33.195312 8.734375 -36.875 C 11.035156 -40.550781 14.164062 -43.476562 18.125 -45.65625 C 22.09375 -47.832031 26.601562 -48.921875 31.65625 -48.921875 L 37.03125 -48.921875 L 37.03125 -44.890625 L 31.078125 -44.890625 C 27.242188 -44.890625 23.726562 -43.976562 20.53125 -42.15625 C 17.332031 -40.332031 14.753906 -37.882812 12.796875 -34.8125 C 10.847656 -31.75 9.875 -28.296875 9.875 -24.453125 C 9.875 -20.617188 10.847656 -17.164062 12.796875 -14.09375 C 14.753906 -11.03125 17.332031 -8.585938 20.53125 -6.765625 C 23.726562 -4.941406 27.242188 -4.03125 31.078125 -4.03125 L 37.03125 -4.03125 L 37.03125 0 Z M 31.65625 0 "/></g></g></g><g fill="#000000" fill-opacity="1"><g transform="translate(449.543346, 209.459871)"><g><path d="M 7.765625 0 L 7.765625 -70.015625 L 12.28125 -70.015625 L 12.28125 0 Z M 7.765625 0 "/></g></g></g><g fill="#000000" fill-opacity="1"><g transform="translate(466.039439, 209.459871)"><g><path d="M 29.640625 1.25 C 25.867188 1.25 22.300781 0.398438 18.9375 -1.296875 C 15.582031 -2.992188 12.878906 -5.4375 10.828125 -8.625 C 8.785156 -11.820312 7.765625 -15.722656 7.765625 -20.328125 L 7.765625 -48.921875 L 12.375 -48.921875 L 12.375 -20.625 C 12.375 -16.789062 13.203125 -13.53125 14.859375 -10.84375 C 16.523438 -8.15625 18.671875 -6.140625 21.296875 -4.796875 C 23.921875 -3.453125 26.671875 -2.78125 29.546875 -2.78125 C 32.546875 -2.78125 35.375 -3.46875 38.03125 -4.84375 C 40.6875 -6.21875 42.84375 -8.234375 44.5 -10.890625 C 46.164062 -13.546875 47 -16.789062 47 -20.625 L 47 -48.921875 L 51.609375 -48.921875 L 51.609375 -20.328125 C 51.609375 -15.722656 50.582031 -11.820312 48.53125 -8.625 C 46.488281 -5.4375 43.800781 -2.992188 40.46875 -1.296875 C 37.144531 0.398438 33.535156 1.25 29.640625 1.25 Z M 29.640625 1.25 "/></g></g></g><g fill="#000000" fill-opacity="1"><g transform="translate(521.859239, 209.459871)"><g><path d="M 32.03125 1.25 C 27.8125 1.25 23.847656 0.289062 20.140625 -1.625 C 16.429688 -3.550781 13.425781 -6.398438 11.125 -10.171875 C 8.820312 -13.941406 7.671875 -18.578125 7.671875 -24.078125 L 7.671875 -70.015625 L 12.1875 -70.015625 L 12.1875 -37.5 L 12.46875 -37.5 C 13.625 -39.9375 15.207031 -42.097656 17.21875 -43.984375 C 19.226562 -45.867188 21.5625 -47.351562 24.21875 -48.4375 C 26.875 -49.53125 29.640625 -50.078125 32.515625 -50.078125 C 36.796875 -50.078125 40.757812 -49.066406 44.40625 -47.046875 C 48.050781 -45.035156 50.992188 -42.140625 53.234375 -38.359375 C 55.472656 -34.585938 56.59375 -30.019531 56.59375 -24.65625 C 56.59375 -20.4375 55.921875 -16.710938 54.578125 -13.484375 C 53.234375 -10.253906 51.410156 -7.550781 49.109375 -5.375 C 46.804688 -3.195312 44.179688 -1.546875 41.234375 -0.421875 C 38.296875 0.691406 35.226562 1.25 32.03125 1.25 Z M 31.9375 -2.78125 C 35.394531 -2.78125 38.640625 -3.609375 41.671875 -5.265625 C 44.710938 -6.929688 47.191406 -9.378906 49.109375 -12.609375 C 51.023438 -15.835938 51.984375 -19.785156 51.984375 -24.453125 C 51.984375 -28.929688 51.039062 -32.785156 49.15625 -36.015625 C 47.269531 -39.242188 44.820312 -41.722656 41.8125 -43.453125 C 38.8125 -45.179688 35.585938 -46.046875 32.140625 -46.046875 C 28.742188 -46.046875 25.523438 -45.210938 22.484375 -43.546875 C 19.453125 -41.878906 16.992188 -39.429688 15.109375 -36.203125 C 13.222656 -32.972656 12.28125 -28.992188 12.28125 -24.265625 C 12.28125 -19.597656 13.207031 -15.664062 15.0625 -12.46875 C 16.914062 -9.269531 19.34375 -6.851562 22.34375 -5.21875 C 25.351562 -3.59375 28.550781 -2.78125 31.9375 -2.78125 Z M 31.9375 -2.78125 "/></g></g></g></svg>