<svg xmlns="http://www.w3.org/2000/svg" xmlns:xlink="http://www.w3.org/1999/xlink" width="800" zoomAndPan="magnify" viewBox="0 0 600 374.999991" height="500" preserveAspectRatio="xMidYMid meet" version="1.0"><defs><g/><clipPath id="2e10a96332"><path d="M 276.632812 171.765625 L 286.382812 171.765625 L 286.382812 176.941406 L 276.632812 176.941406 Z M 276.632812 171.765625 " clip-rule="nonzero"/></clipPath><clipPath id="f28caddfd8"><path d="M 248 141 L 298.800781 141 L 298.800781 179.925781 L 248 179.925781 Z M 248 141 " clip-rule="nonzero"/></clipPath></defs><g fill="#000000" fill-opacity="1"><g transform="translate(261.87125, 221.050337)"><g><path d="M 6.234375 0 L 6.234375 -29.0625 C 6.234375 -32.894531 7.160156 -36.410156 9.015625 -39.609375 C 10.867188 -42.804688 13.535156 -45.347656 17.015625 -47.234375 C 20.503906 -49.128906 24.710938 -50.078125 29.640625 -50.078125 C 32.003906 -50.078125 34.191406 -49.800781 36.203125 -49.25 C 38.222656 -48.707031 40.09375 -47.925781 41.8125 -46.90625 C 43.539062 -45.882812 45.046875 -44.671875 46.328125 -43.265625 L 46.421875 -43.265625 C 47.765625 -44.671875 49.300781 -45.882812 51.03125 -46.90625 C 52.757812 -47.925781 54.644531 -48.707031 56.6875 -49.25 C 58.738281 -49.800781 60.945312 -50.078125 63.3125 -50.078125 C 68.226562 -50.078125 72.429688 -49.128906 75.921875 -47.234375 C 79.410156 -45.347656 82.082031 -42.804688 83.9375 -39.609375 C 85.789062 -36.410156 86.71875 -32.894531 86.71875 -29.0625 L 86.71875 0 L 73.578125 0 L 73.578125 -29.0625 C 73.578125 -30.851562 73.113281 -32.484375 72.1875 -33.953125 C 71.257812 -35.421875 70.023438 -36.601562 68.484375 -37.5 C 66.953125 -38.394531 65.226562 -38.84375 63.3125 -38.84375 C 61.457031 -38.84375 59.742188 -38.394531 58.171875 -37.5 C 56.609375 -36.601562 55.363281 -35.421875 54.4375 -33.953125 C 53.507812 -32.484375 53.046875 -30.851562 53.046875 -29.0625 L 53.046875 0 L 39.90625 0 L 39.90625 -29.0625 C 39.90625 -30.851562 39.441406 -32.484375 38.515625 -33.953125 C 37.585938 -35.421875 36.351562 -36.601562 34.8125 -37.5 C 33.28125 -38.394531 31.554688 -38.84375 29.640625 -38.84375 C 27.785156 -38.84375 26.070312 -38.394531 24.5 -37.5 C 22.9375 -36.601562 21.691406 -35.421875 20.765625 -33.953125 C 19.835938 -32.484375 19.375 -30.851562 19.375 -29.0625 L 19.375 0 Z M 6.234375 0 "/></g></g></g><g clip-path="url(#2e10a96332)"><path fill="#000000" d="M 284.691406 154.46875 L 284.851562 154.480469 C 285.539062 154.519531 286.167969 154.757812 286.730469 155.183594 C 287.671875 156.070312 288.277344 156.910156 288.546875 157.707031 L 290.3125 158.3125 C 289.140625 158.855469 288.460938 159.382812 288.277344 159.890625 L 288.046875 160.347656 C 287.6875 161.675781 287.363281 162.773438 287.070312 163.644531 C 286.730469 164.550781 286.398438 165.328125 286.082031 165.984375 C 285.222656 167.660156 284.359375 168.886719 283.488281 169.65625 C 282.28125 170.824219 280.40625 171.644531 277.855469 172.125 C 277.320312 172.238281 276.425781 172.304688 275.175781 172.332031 C 273.648438 172.328125 272.015625 172.242188 270.277344 172.066406 L 269.644531 172.164062 C 269.097656 172.304688 268.152344 172.691406 266.800781 173.316406 C 266.511719 173.394531 266.308594 173.410156 266.183594 173.363281 C 262.136719 175.734375 259.796875 176.898438 259.167969 176.855469 C 259.042969 176.835938 259.097656 176.722656 259.332031 176.507812 L 258.914062 176.550781 C 259.113281 176.195312 259.078125 175.988281 258.816406 175.925781 C 259.851562 175.417969 260.875 174.871094 261.886719 174.285156 C 264.398438 172.75 265.890625 171.785156 266.363281 171.382812 C 268.121094 170.160156 270.21875 168.414062 272.664062 166.144531 C 274.214844 164.671875 275.675781 163.144531 277.039062 161.570312 C 278.257812 160.203125 279.675781 158.363281 281.289062 156.054688 L 281.789062 155.570312 C 282.417969 154.875 283.386719 154.507812 284.691406 154.46875 " fill-opacity="1" fill-rule="nonzero"/><path fill="#000000" d="M 275.003906 170.714844 L 278.648438 171.375 C 279.601562 172.75 280.320312 173.582031 280.800781 173.863281 L 281.394531 174.171875 C 281.484375 174.21875 281.671875 174.28125 281.957031 174.355469 C 282.15625 174.40625 282.78125 174.464844 283.835938 174.527344 C 284.058594 174.5625 284.304688 174.632812 284.566406 174.75 C 284.886719 174.90625 285.371094 175.367188 286.015625 176.132812 C 285.113281 175.5 283.554688 175.144531 281.34375 175.070312 C 280.476562 175.082031 279.851562 175.152344 279.46875 175.277344 C 279.210938 175.351562 278.992188 175.433594 278.808594 175.519531 C 278.675781 175.578125 278.378906 175.742188 277.914062 176.015625 C 277.792969 176.070312 277.722656 176.09375 277.699219 176.085938 C 277.628906 176.066406 277.609375 176.011719 277.640625 175.929688 L 278.109375 175.261719 C 277.9375 175.195312 277.570312 175.359375 277.003906 175.757812 C 276.96875 175.753906 276.953125 175.734375 276.949219 175.699219 C 276.957031 175.628906 276.980469 175.5625 277.019531 175.5 C 277.246094 175.171875 277.457031 174.9375 277.652344 174.800781 C 277.75 174.714844 278.144531 174.550781 278.835938 174.308594 C 278.914062 174.265625 278.9375 174.210938 278.90625 174.136719 C 278.863281 174.054688 278.800781 173.980469 278.71875 173.910156 C 277.941406 173.332031 277.03125 172.605469 275.988281 171.734375 C 275.6875 171.457031 275.359375 171.117188 275.003906 170.714844 " fill-opacity="1" fill-rule="nonzero"/></g><g clip-path="url(#f28caddfd8)"><path fill="#820303" d="M 284.917969 141.316406 L 284.839844 141.320312 C 284.742188 141.328125 284.660156 141.347656 284.597656 141.386719 L 284.1875 141.710938 C 284.214844 141.902344 284.660156 142.253906 285.519531 142.765625 L 284.585938 143.207031 C 285.195312 143.585938 285.476562 143.808594 285.417969 143.871094 C 285.425781 143.90625 285.40625 143.9375 285.371094 143.957031 L 284.359375 144.226562 C 285.457031 144.542969 286.046875 144.761719 286.128906 144.886719 C 285.390625 145.066406 285.046875 145.238281 285.09375 145.414062 C 286.300781 145.910156 286.878906 146.246094 286.835938 146.425781 L 285.527344 147.332031 L 286.886719 148.023438 C 285.125 148.886719 282.480469 151.421875 278.957031 155.625 L 270.867188 161.589844 L 268.078125 164.328125 C 266.476562 165.96875 265.222656 167.414062 264.308594 168.660156 C 264.1875 168.824219 264.890625 168.644531 266.410156 168.117188 L 266.117188 169.039062 C 265.179688 169.515625 264.574219 169.851562 264.300781 170.050781 C 263.492188 171.09375 262.726562 171.808594 262.003906 172.1875 L 248.132812 178.597656 C 247.929688 179.1875 248.386719 179.589844 249.5 179.800781 C 251.136719 179.5625 252.941406 179.007812 254.921875 178.136719 L 268.390625 171.929688 L 269.4375 171.652344 C 270.871094 171.3125 271.835938 171.140625 272.332031 171.136719 C 275.1875 171.613281 277.570312 171.824219 279.480469 171.761719 C 280.683594 171.71875 281.957031 171.496094 283.300781 171.101562 C 286.941406 169.929688 289.730469 168.230469 291.664062 165.996094 C 293.367188 164.027344 294.441406 162.214844 294.886719 160.558594 C 295.378906 159.304688 295.457031 156.988281 295.121094 153.617188 C 295.195312 153.492188 295.347656 153.414062 295.582031 153.382812 C 296.894531 153.46875 297.789062 153.445312 298.265625 153.308594 C 298.710938 153.210938 298.929688 152.980469 298.921875 152.628906 C 298.800781 151.988281 297.5625 150.964844 295.214844 149.558594 C 295.1875 148.527344 294.054688 146.992188 291.8125 144.953125 C 287.675781 142.273438 285.378906 141.0625 284.917969 141.316406 " fill-opacity="1" fill-rule="nonzero"/></g></svg>