<svg xmlns="http://www.w3.org/2000/svg" xmlns:xlink="http://www.w3.org/1999/xlink" width="800" zoomAndPan="magnify" viewBox="0 0 600 374.999991" height="500" preserveAspectRatio="xMidYMid meet" version="1.0"><defs><g/><clipPath id="89e464be42"><path d="M 225.34375 151.570312 L 255.996094 151.570312 L 255.996094 168.074219 L 225.34375 168.074219 Z M 225.34375 151.570312 " clip-rule="nonzero"/></clipPath><clipPath id="06e0a5cb45"><path d="M 225.34375 151.570312 L 255.996094 151.570312 L 255.996094 166 L 225.34375 166 Z M 225.34375 151.570312 " clip-rule="nonzero"/></clipPath><clipPath id="e6b54abf0f"><path d="M 134 54 L 297 54 L 297 176.828125 L 134 176.828125 Z M 134 54 " clip-rule="nonzero"/></clipPath></defs><g fill="#000000" fill-opacity="1"><g transform="translate(178.190971, 309.012463)"><g><path d="M 19.921875 0 L 19.921875 -92.859375 C 19.921875 -105.117188 22.878906 -116.351562 28.796875 -126.5625 C 34.722656 -136.78125 43.253906 -144.898438 54.390625 -150.921875 C 65.523438 -156.953125 78.957031 -159.96875 94.6875 -159.96875 C 102.25 -159.96875 109.25 -159.097656 115.6875 -157.359375 C 122.125 -155.628906 128.097656 -153.128906 133.609375 -149.859375 C 139.128906 -146.585938 143.929688 -142.703125 148.015625 -138.203125 L 148.328125 -138.203125 C 152.617188 -142.703125 157.519531 -146.585938 163.03125 -149.859375 C 168.550781 -153.128906 174.578125 -155.628906 181.109375 -157.359375 C 187.648438 -159.097656 194.703125 -159.96875 202.265625 -159.96875 C 217.992188 -159.96875 231.425781 -156.953125 242.5625 -150.921875 C 253.695312 -144.898438 262.222656 -136.78125 268.140625 -126.5625 C 274.066406 -116.351562 277.03125 -105.117188 277.03125 -92.859375 L 277.03125 0 L 235.046875 0 L 235.046875 -92.859375 C 235.046875 -98.578125 233.5625 -103.785156 230.59375 -108.484375 C 227.632812 -113.179688 223.703125 -116.957031 218.796875 -119.8125 C 213.898438 -122.675781 208.390625 -124.109375 202.265625 -124.109375 C 196.335938 -124.109375 190.867188 -122.675781 185.859375 -119.8125 C 180.859375 -116.957031 176.875 -113.179688 173.90625 -108.484375 C 170.945312 -103.785156 169.46875 -98.578125 169.46875 -92.859375 L 169.46875 0 L 127.484375 0 L 127.484375 -92.859375 C 127.484375 -98.578125 126 -103.785156 123.03125 -108.484375 C 120.070312 -113.179688 116.140625 -116.957031 111.234375 -119.8125 C 106.335938 -122.675781 100.820312 -124.109375 94.6875 -124.109375 C 88.769531 -124.109375 83.304688 -122.675781 78.296875 -119.8125 C 73.296875 -116.957031 69.3125 -113.179688 66.34375 -108.484375 C 63.382812 -103.785156 61.90625 -98.578125 61.90625 -92.859375 L 61.90625 0 Z M 19.921875 0 "/></g></g></g><g clip-path="url(#89e464be42)"><path fill="#000000" d="M 251.246094 96.464844 L 251.753906 96.507812 C 253.949219 96.636719 255.941406 97.386719 257.734375 98.757812 C 260.734375 101.589844 262.660156 104.273438 263.515625 106.820312 L 269.132812 108.753906 C 265.398438 110.488281 263.238281 112.167969 262.660156 113.792969 L 261.925781 115.257812 C 260.777344 119.5 259.742188 123.007812 258.816406 125.789062 C 257.730469 128.6875 256.679688 131.179688 255.667969 133.273438 C 252.941406 138.632812 250.191406 142.546875 247.417969 145.011719 C 243.585938 148.742188 237.609375 151.371094 229.496094 152.898438 C 227.796875 153.257812 224.957031 153.476562 220.980469 153.558594 C 216.121094 153.554688 210.925781 153.269531 205.398438 152.707031 L 203.386719 153.027344 C 201.644531 153.476562 198.628906 154.703125 194.335938 156.710938 C 193.421875 156.953125 192.769531 157.003906 192.375 156.859375 C 179.496094 164.429688 172.054688 168.152344 170.054688 168.019531 C 169.664062 167.960938 169.835938 167.589844 170.574219 166.902344 L 169.246094 167.042969 C 169.878906 165.90625 169.773438 165.242188 168.929688 165.054688 C 172.226562 163.429688 175.488281 161.679688 178.707031 159.804688 C 186.691406 154.902344 191.4375 151.808594 192.941406 150.53125 C 198.53125 146.617188 205.210938 141.035156 212.984375 133.78125 C 217.925781 129.074219 222.566406 124.199219 226.910156 119.160156 C 230.789062 114.796875 235.292969 108.921875 240.425781 101.535156 L 242.019531 99.984375 C 244.019531 97.765625 247.09375 96.589844 251.246094 96.464844 " fill-opacity="1" fill-rule="nonzero"/></g><g clip-path="url(#06e0a5cb45)"><path fill="#000000" d="M 220.433594 148.386719 L 232.027344 150.5 C 235.0625 154.902344 237.339844 157.554688 238.867188 158.457031 L 240.765625 159.441406 C 241.042969 159.59375 241.640625 159.792969 242.550781 160.03125 C 243.179688 160.1875 245.167969 160.375 248.519531 160.582031 C 249.238281 160.683594 250.015625 160.921875 250.847656 161.289062 C 251.871094 161.792969 253.40625 163.265625 255.460938 165.707031 C 252.585938 163.6875 247.636719 162.554688 240.605469 162.308594 C 237.839844 162.351562 235.847656 162.574219 234.628906 162.976562 C 233.816406 163.214844 233.121094 163.472656 232.535156 163.742188 C 232.117188 163.933594 231.164062 164.464844 229.683594 165.335938 C 229.304688 165.511719 229.082031 165.589844 229.011719 165.566406 C 228.78125 165.492188 228.71875 165.324219 228.816406 165.0625 L 230.308594 162.929688 C 229.765625 162.714844 228.589844 163.242188 226.789062 164.511719 C 226.683594 164.496094 226.625 164.433594 226.621094 164.324219 C 226.644531 164.101562 226.71875 163.886719 226.839844 163.6875 C 227.558594 162.636719 228.230469 161.894531 228.855469 161.453125 C 229.167969 161.179688 230.421875 160.65625 232.617188 159.875 C 232.867188 159.746094 232.941406 159.5625 232.847656 159.332031 C 232.710938 159.066406 232.511719 158.824219 232.25 158.609375 C 229.773438 156.761719 226.878906 154.441406 223.5625 151.644531 C 222.601562 150.761719 221.558594 149.675781 220.433594 148.386719 " fill-opacity="1" fill-rule="nonzero"/></g><g clip-path="url(#e6b54abf0f)"><path fill="#820303" d="M 251.828125 54.285156 L 251.582031 54.296875 C 251.269531 54.320312 251.007812 54.394531 250.800781 54.515625 L 249.492188 55.550781 C 249.585938 56.15625 251.007812 57.28125 253.753906 58.925781 L 250.761719 60.332031 C 252.71875 61.542969 253.609375 62.25 253.429688 62.457031 C 253.445312 62.570312 253.394531 62.660156 253.277344 62.722656 L 250.039062 63.589844 C 253.554688 64.59375 255.441406 65.296875 255.703125 65.699219 C 253.339844 66.265625 252.238281 66.824219 252.394531 67.375 C 256.25 68.960938 258.101562 70.039062 257.953125 70.609375 L 253.78125 73.511719 L 258.117188 75.722656 C 252.484375 78.480469 244.039062 86.578125 232.777344 100.007812 L 206.929688 119.066406 L 198.019531 127.816406 C 192.910156 133.066406 188.890625 137.679688 185.96875 141.65625 C 185.59375 142.1875 187.832031 141.609375 192.6875 139.921875 L 191.753906 142.871094 C 188.757812 144.390625 186.824219 145.464844 185.949219 146.097656 C 183.371094 149.441406 180.925781 151.71875 178.605469 152.9375 L 134.292969 173.414062 C 133.640625 175.296875 135.09375 176.582031 138.660156 177.265625 C 143.886719 176.5 149.660156 174.726562 155.976562 171.945312 L 199.023438 152.109375 L 202.359375 151.21875 C 206.941406 150.140625 210.027344 149.589844 211.617188 149.570312 C 220.734375 151.101562 228.347656 151.769531 234.460938 151.578125 C 238.300781 151.429688 242.367188 150.722656 246.65625 149.460938 C 258.296875 145.722656 267.207031 140.285156 273.386719 133.148438 C 278.824219 126.855469 282.257812 121.0625 283.683594 115.777344 C 285.25 111.765625 285.5 104.371094 284.4375 93.589844 C 284.664062 93.191406 285.152344 92.945312 285.902344 92.84375 C 290.097656 93.121094 292.953125 93.042969 294.476562 92.609375 C 295.902344 92.289062 296.601562 91.566406 296.574219 90.433594 C 296.183594 88.390625 292.238281 85.121094 284.730469 80.628906 C 284.648438 77.332031 281.023438 72.425781 273.859375 65.910156 C 260.644531 57.347656 253.300781 53.472656 251.828125 54.285156 " fill-opacity="1" fill-rule="nonzero"/></g></svg>