<svg xmlns="http://www.w3.org/2000/svg" xmlns:xlink="http://www.w3.org/1999/xlink" width="800" zoomAndPan="magnify" viewBox="0 0 600 374.999991" height="500" preserveAspectRatio="xMidYMid meet" version="1.0"><defs><g/><clipPath id="2174639a9c"><path d="M 193.242188 171.765625 L 202.992188 171.765625 L 202.992188 176.941406 L 193.242188 176.941406 Z M 193.242188 171.765625 " clip-rule="nonzero"/></clipPath><clipPath id="e93541c25a"><path d="M 164.414062 141 L 215.414062 141 L 215.414062 179.925781 L 164.414062 179.925781 Z M 164.414062 141 " clip-rule="nonzero"/></clipPath></defs><g fill="#000000" fill-opacity="1"><g transform="translate(178.482389, 221.050337)"><g><path d="M 6.234375 0 L 6.234375 -29.0625 C 6.234375 -32.894531 7.160156 -36.410156 9.015625 -39.609375 C 10.867188 -42.804688 13.535156 -45.347656 17.015625 -47.234375 C 20.503906 -49.128906 24.710938 -50.078125 29.640625 -50.078125 C 32.003906 -50.078125 34.191406 -49.800781 36.203125 -49.25 C 38.222656 -48.707031 40.09375 -47.925781 41.8125 -46.90625 C 43.539062 -45.882812 45.046875 -44.671875 46.328125 -43.265625 L 46.421875 -43.265625 C 47.765625 -44.671875 49.300781 -45.882812 51.03125 -46.90625 C 52.757812 -47.925781 54.644531 -48.707031 56.6875 -49.25 C 58.738281 -49.800781 60.945312 -50.078125 63.3125 -50.078125 C 68.226562 -50.078125 72.429688 -49.128906 75.921875 -47.234375 C 79.410156 -45.347656 82.082031 -42.804688 83.9375 -39.609375 C 85.789062 -36.410156 86.71875 -32.894531 86.71875 -29.0625 L 86.71875 0 L 73.578125 0 L 73.578125 -29.0625 C 73.578125 -30.851562 73.113281 -32.484375 72.1875 -33.953125 C 71.257812 -35.421875 70.023438 -36.601562 68.484375 -37.5 C 66.953125 -38.394531 65.226562 -38.84375 63.3125 -38.84375 C 61.457031 -38.84375 59.742188 -38.394531 58.171875 -37.5 C 56.609375 -36.601562 55.363281 -35.421875 54.4375 -33.953125 C 53.507812 -32.484375 53.046875 -30.851562 53.046875 -29.0625 L 53.046875 0 L 39.90625 0 L 39.90625 -29.0625 C 39.90625 -30.851562 39.441406 -32.484375 38.515625 -33.953125 C 37.585938 -35.421875 36.351562 -36.601562 34.8125 -37.5 C 33.28125 -38.394531 31.554688 -38.84375 29.640625 -38.84375 C 27.785156 -38.84375 26.070312 -38.394531 24.5 -37.5 C 22.9375 -36.601562 21.691406 -35.421875 20.765625 -33.953125 C 19.835938 -32.484375 19.375 -30.851562 19.375 -29.0625 L 19.375 0 Z M 6.234375 0 "/></g></g></g><g clip-path="url(#2174639a9c)"><path fill="#000000" d="M 201.300781 154.46875 L 201.460938 154.480469 C 202.152344 154.519531 202.777344 154.757812 203.34375 155.183594 C 204.285156 156.070312 204.890625 156.910156 205.160156 157.707031 L 206.925781 158.3125 C 205.75 158.855469 205.074219 159.382812 204.890625 159.890625 L 204.660156 160.347656 C 204.296875 161.675781 203.972656 162.773438 203.683594 163.644531 C 203.339844 164.550781 203.011719 165.328125 202.691406 165.984375 C 201.835938 167.660156 200.96875 168.886719 200.097656 169.65625 C 198.894531 170.824219 197.015625 171.644531 194.464844 172.125 C 193.929688 172.238281 193.039062 172.304688 191.789062 172.332031 C 190.261719 172.328125 188.628906 172.242188 186.890625 172.066406 L 186.257812 172.164062 C 185.710938 172.304688 184.761719 172.6875 183.410156 173.316406 C 183.125 173.394531 182.917969 173.410156 182.796875 173.363281 C 178.746094 175.734375 176.410156 176.898438 175.78125 176.855469 C 175.65625 176.835938 175.710938 176.722656 175.941406 176.507812 L 175.523438 176.550781 C 175.722656 176.195312 175.691406 175.988281 175.425781 175.925781 C 176.460938 175.417969 177.488281 174.871094 178.5 174.285156 C 181.007812 172.75 182.5 171.785156 182.972656 171.382812 C 184.730469 170.160156 186.832031 168.414062 189.273438 166.144531 C 190.828125 164.667969 192.285156 163.144531 193.652344 161.570312 C 194.871094 160.203125 196.289062 158.363281 197.902344 156.054688 L 198.402344 155.570312 C 199.03125 154.875 199.996094 154.507812 201.300781 154.46875 " fill-opacity="1" fill-rule="nonzero"/><path fill="#000000" d="M 191.617188 170.714844 L 195.261719 171.375 C 196.214844 172.75 196.929688 173.582031 197.410156 173.863281 L 198.007812 174.171875 C 198.09375 174.21875 198.28125 174.28125 198.566406 174.355469 C 198.765625 174.40625 199.390625 174.464844 200.445312 174.527344 C 200.671875 174.5625 200.914062 174.632812 201.175781 174.75 C 201.5 174.90625 201.980469 175.367188 202.625 176.132812 C 201.722656 175.5 200.167969 175.144531 197.957031 175.070312 C 197.089844 175.082031 196.460938 175.152344 196.078125 175.277344 C 195.824219 175.351562 195.605469 175.433594 195.421875 175.515625 C 195.289062 175.578125 194.988281 175.742188 194.523438 176.015625 C 194.40625 176.070312 194.335938 176.09375 194.3125 176.085938 C 194.242188 176.066406 194.21875 176.011719 194.25 175.929688 L 194.71875 175.261719 C 194.550781 175.195312 194.179688 175.359375 193.613281 175.757812 C 193.582031 175.753906 193.5625 175.734375 193.5625 175.699219 C 193.570312 175.628906 193.59375 175.5625 193.628906 175.5 C 193.855469 175.171875 194.066406 174.9375 194.261719 174.800781 C 194.363281 174.714844 194.757812 174.550781 195.445312 174.308594 C 195.523438 174.265625 195.546875 174.210938 195.519531 174.136719 C 195.476562 174.054688 195.414062 173.980469 195.328125 173.910156 C 194.550781 173.332031 193.640625 172.605469 192.597656 171.734375 C 192.296875 171.457031 191.96875 171.117188 191.617188 170.714844 " fill-opacity="1" fill-rule="nonzero"/></g><g clip-path="url(#e93541c25a)"><path fill="#820303" d="M 201.527344 141.316406 L 201.453125 141.320312 C 201.351562 141.328125 201.273438 141.347656 201.207031 141.386719 L 200.796875 141.710938 C 200.828125 141.902344 201.273438 142.253906 202.132812 142.765625 L 201.195312 143.207031 C 201.808594 143.585938 202.085938 143.808594 202.03125 143.871094 C 202.035156 143.90625 202.019531 143.9375 201.980469 143.957031 L 200.96875 144.226562 C 202.070312 144.542969 202.660156 144.761719 202.742188 144.886719 C 202 145.066406 201.65625 145.238281 201.707031 145.414062 C 202.910156 145.910156 203.492188 146.246094 203.445312 146.425781 L 202.140625 147.332031 L 203.496094 148.023438 C 201.734375 148.886719 199.089844 151.421875 195.566406 155.625 L 187.476562 161.589844 L 184.6875 164.328125 C 183.089844 165.96875 181.832031 167.414062 180.917969 168.660156 C 180.800781 168.824219 181.5 168.644531 183.019531 168.117188 L 182.726562 169.039062 C 181.789062 169.515625 181.183594 169.851562 180.910156 170.050781 C 180.105469 171.09375 179.339844 171.808594 178.613281 172.1875 L 164.746094 178.597656 C 164.542969 179.1875 164.996094 179.589844 166.113281 179.800781 C 167.746094 179.5625 169.554688 179.007812 171.53125 178.136719 L 185.003906 171.929688 L 186.046875 171.652344 C 187.480469 171.3125 188.445312 171.140625 188.945312 171.136719 C 191.796875 171.613281 194.179688 171.824219 196.09375 171.761719 C 197.296875 171.71875 198.566406 171.496094 199.910156 171.101562 C 203.554688 169.929688 206.339844 168.230469 208.273438 165.996094 C 209.976562 164.027344 211.050781 162.214844 211.5 160.558594 C 211.988281 159.304688 212.066406 156.988281 211.734375 153.617188 C 211.804688 153.492188 211.957031 153.414062 212.191406 153.382812 C 213.503906 153.46875 214.398438 153.445312 214.875 153.308594 C 215.320312 153.210938 215.539062 152.980469 215.53125 152.628906 C 215.410156 151.988281 214.175781 150.964844 211.824219 149.558594 C 211.800781 148.527344 210.664062 146.992188 208.421875 144.953125 C 204.289062 142.273438 201.988281 141.0625 201.527344 141.316406 " fill-opacity="1" fill-rule="nonzero"/></g><g fill="#000000" fill-opacity="1"><g transform="translate(268.195478, 221.050337)"><g><path d="M 31.65625 0 C 26.601562 0 22.09375 -1.082031 18.125 -3.25 C 14.164062 -5.425781 11.035156 -8.351562 8.734375 -12.03125 C 6.429688 -15.707031 5.28125 -19.847656 5.28125 -24.453125 C 5.28125 -29.054688 6.429688 -33.195312 8.734375 -36.875 C 11.035156 -40.550781 14.164062 -43.476562 18.125 -45.65625 C 22.09375 -47.832031 26.601562 -48.921875 31.65625 -48.921875 L 37.03125 -48.921875 L 37.03125 -44.890625 L 31.078125 -44.890625 C 27.242188 -44.890625 23.726562 -43.976562 20.53125 -42.15625 C 17.332031 -40.332031 14.753906 -37.882812 12.796875 -34.8125 C 10.847656 -31.75 9.875 -28.296875 9.875 -24.453125 C 9.875 -20.617188 10.847656 -17.164062 12.796875 -14.09375 C 14.753906 -11.03125 17.332031 -8.585938 20.53125 -6.765625 C 23.726562 -4.941406 27.242188 -4.03125 31.078125 -4.03125 L 37.03125 -4.03125 L 37.03125 0 Z M 31.65625 0 "/></g></g></g><g fill="#000000" fill-opacity="1"><g transform="translate(304.928884, 221.050337)"><g><path d="M 7.765625 0 L 7.765625 -70.015625 L 12.28125 -70.015625 L 12.28125 0 Z M 7.765625 0 "/></g></g></g><g fill="#000000" fill-opacity="1"><g transform="translate(321.424976, 221.050337)"><g><path d="M 29.640625 1.25 C 25.867188 1.25 22.300781 0.398438 18.9375 -1.296875 C 15.582031 -2.992188 12.878906 -5.4375 10.828125 -8.625 C 8.785156 -11.820312 7.765625 -15.722656 7.765625 -20.328125 L 7.765625 -48.921875 L 12.375 -48.921875 L 12.375 -20.625 C 12.375 -16.789062 13.203125 -13.53125 14.859375 -10.84375 C 16.523438 -8.15625 18.671875 -6.140625 21.296875 -4.796875 C 23.921875 -3.453125 26.671875 -2.78125 29.546875 -2.78125 C 32.546875 -2.78125 35.375 -3.46875 38.03125 -4.84375 C 40.6875 -6.21875 42.84375 -8.234375 44.5 -10.890625 C 46.164062 -13.546875 47 -16.789062 47 -20.625 L 47 -48.921875 L 51.609375 -48.921875 L 51.609375 -20.328125 C 51.609375 -15.722656 50.582031 -11.820312 48.53125 -8.625 C 46.488281 -5.4375 43.800781 -2.992188 40.46875 -1.296875 C 37.144531 0.398438 33.535156 1.25 29.640625 1.25 Z M 29.640625 1.25 "/></g></g></g><g fill="#000000" fill-opacity="1"><g transform="translate(377.244776, 221.050337)"><g><path d="M 32.03125 1.25 C 27.8125 1.25 23.847656 0.289062 20.140625 -1.625 C 16.429688 -3.550781 13.425781 -6.398438 11.125 -10.171875 C 8.820312 -13.941406 7.671875 -18.578125 7.671875 -24.078125 L 7.671875 -70.015625 L 12.1875 -70.015625 L 12.1875 -37.5 L 12.46875 -37.5 C 13.625 -39.9375 15.207031 -42.097656 17.21875 -43.984375 C 19.226562 -45.867188 21.5625 -47.351562 24.21875 -48.4375 C 26.875 -49.53125 29.640625 -50.078125 32.515625 -50.078125 C 36.796875 -50.078125 40.757812 -49.066406 44.40625 -47.046875 C 48.050781 -45.035156 50.992188 -42.140625 53.234375 -38.359375 C 55.472656 -34.585938 56.59375 -30.019531 56.59375 -24.65625 C 56.59375 -20.4375 55.921875 -16.710938 54.578125 -13.484375 C 53.234375 -10.253906 51.410156 -7.550781 49.109375 -5.375 C 46.804688 -3.195312 44.179688 -1.546875 41.234375 -0.421875 C 38.296875 0.691406 35.226562 1.25 32.03125 1.25 Z M 31.9375 -2.78125 C 35.394531 -2.78125 38.640625 -3.609375 41.671875 -5.265625 C 44.710938 -6.929688 47.191406 -9.378906 49.109375 -12.609375 C 51.023438 -15.835938 51.984375 -19.785156 51.984375 -24.453125 C 51.984375 -28.929688 51.039062 -32.785156 49.15625 -36.015625 C 47.269531 -39.242188 44.820312 -41.722656 41.8125 -43.453125 C 38.8125 -45.179688 35.585938 -46.046875 32.140625 -46.046875 C 28.742188 -46.046875 25.523438 -45.210938 22.484375 -43.546875 C 19.453125 -41.878906 16.992188 -39.429688 15.109375 -36.203125 C 13.222656 -32.972656 12.28125 -28.992188 12.28125 -24.265625 C 12.28125 -19.597656 13.207031 -15.664062 15.0625 -12.46875 C 16.914062 -9.269531 19.34375 -6.851562 22.34375 -5.21875 C 25.351562 -3.59375 28.550781 -2.78125 31.9375 -2.78125 Z M 31.9375 -2.78125 "/></g></g></g></svg>