<svg xmlns="http://www.w3.org/2000/svg" xmlns:xlink="http://www.w3.org/1999/xlink" width="800" zoomAndPan="magnify" viewBox="0 0 600 374.999991" height="500" preserveAspectRatio="xMidYMid meet" version="1.0"><defs><g/><clipPath id="d0abb8b734"><path d="M 379.40625 137.6875 L 396.65625 137.6875 L 396.65625 146.6875 L 379.40625 146.6875 Z M 379.40625 137.6875 " clip-rule="nonzero"/></clipPath><clipPath id="8f036b8dc5"><path d="M 379.40625 137.6875 L 396.65625 137.6875 L 396.65625 146 L 379.40625 146 Z M 379.40625 137.6875 " clip-rule="nonzero"/></clipPath><clipPath id="66b75245c4"><path d="M 327.234375 82 L 419.484375 82 L 419.484375 152.375 L 327.234375 152.375 Z M 327.234375 82 " clip-rule="nonzero"/></clipPath><clipPath id="a4185ff440"><path d="M 137.125 137.6875 L 154.375 137.6875 L 154.375 146.6875 L 137.125 146.6875 Z M 137.125 137.6875 " clip-rule="nonzero"/></clipPath><clipPath id="26bccfed29"><path d="M 137.125 137.6875 L 154.375 137.6875 L 154.375 146 L 137.125 146 Z M 137.125 137.6875 " clip-rule="nonzero"/></clipPath><clipPath id="252153e3f7"><path d="M 85 82 L 177.199219 82 L 177.199219 152.375 L 85 152.375 Z M 85 82 " clip-rule="nonzero"/></clipPath></defs><g fill="#000000" fill-opacity="1"><g transform="translate(352.695334, 226.874809)"><g><path d="M 11.28125 0 L 11.28125 -52.59375 C 11.28125 -59.539062 12.957031 -65.90625 16.3125 -71.6875 C 19.675781 -77.476562 24.507812 -82.078125 30.8125 -85.484375 C 37.125 -88.898438 44.734375 -90.609375 53.640625 -90.609375 C 57.921875 -90.609375 61.882812 -90.117188 65.53125 -89.140625 C 69.175781 -88.160156 72.5625 -86.742188 75.6875 -84.890625 C 78.8125 -83.035156 81.53125 -80.835938 83.84375 -78.296875 L 84.015625 -78.296875 C 86.453125 -80.835938 89.226562 -83.035156 92.34375 -84.890625 C 95.46875 -86.742188 98.882812 -88.160156 102.59375 -89.140625 C 106.300781 -90.117188 110.296875 -90.609375 114.578125 -90.609375 C 123.484375 -90.609375 131.085938 -88.898438 137.390625 -85.484375 C 143.703125 -82.078125 148.535156 -77.476562 151.890625 -71.6875 C 155.242188 -65.90625 156.921875 -59.539062 156.921875 -52.59375 L 156.921875 0 L 133.140625 0 L 133.140625 -52.59375 C 133.140625 -55.832031 132.300781 -58.78125 130.625 -61.4375 C 128.945312 -64.101562 126.71875 -66.25 123.9375 -67.875 C 121.164062 -69.5 118.046875 -70.3125 114.578125 -70.3125 C 111.210938 -70.3125 108.113281 -69.5 105.28125 -67.875 C 102.445312 -66.25 100.191406 -64.101562 98.515625 -61.4375 C 96.835938 -58.78125 96 -55.832031 96 -52.59375 L 96 0 L 72.21875 0 L 72.21875 -52.59375 C 72.21875 -55.832031 71.378906 -58.78125 69.703125 -61.4375 C 68.023438 -64.101562 65.796875 -66.25 63.015625 -67.875 C 60.234375 -69.5 57.109375 -70.3125 53.640625 -70.3125 C 50.285156 -70.3125 47.1875 -69.5 44.34375 -67.875 C 41.507812 -66.25 39.253906 -64.101562 37.578125 -61.4375 C 35.898438 -58.78125 35.0625 -55.832031 35.0625 -52.59375 L 35.0625 0 Z M 11.28125 0 "/></g></g></g><g clip-path="url(#d0abb8b734)"><path fill="#000000" d="M 393.996094 106.292969 L 394.289062 106.320312 C 395.535156 106.390625 396.667969 106.816406 397.691406 107.585938 C 399.394531 109.179688 400.492188 110.691406 400.976562 112.125 L 404.171875 113.214844 C 402.046875 114.191406 400.820312 115.136719 400.492188 116.050781 L 400.074219 116.875 C 399.421875 119.265625 398.832031 121.242188 398.304688 122.808594 C 397.6875 124.4375 397.089844 125.84375 396.515625 127.019531 C 394.960938 130.039062 393.398438 132.242188 391.820312 133.628906 C 389.640625 135.730469 386.242188 137.210938 381.625 138.070312 C 380.660156 138.273438 379.046875 138.398438 376.78125 138.441406 C 374.019531 138.441406 371.0625 138.28125 367.917969 137.964844 L 366.773438 138.144531 C 365.785156 138.394531 364.066406 139.085938 361.625 140.21875 C 361.105469 140.355469 360.734375 140.382812 360.511719 140.300781 C 353.183594 144.566406 348.953125 146.660156 347.816406 146.585938 C 347.589844 146.550781 347.6875 146.34375 348.109375 145.957031 L 347.351562 146.035156 C 347.714844 145.394531 347.652344 145.023438 347.175781 144.914062 C 349.050781 144 350.902344 143.015625 352.734375 141.960938 C 357.277344 139.199219 359.976562 137.457031 360.832031 136.738281 C 364.011719 134.535156 367.8125 131.390625 372.234375 127.308594 C 375.042969 124.65625 377.683594 121.910156 380.15625 119.074219 C 382.359375 116.617188 384.925781 113.308594 387.84375 109.148438 L 388.75 108.277344 C 389.886719 107.027344 391.636719 106.367188 393.996094 106.292969 " fill-opacity="1" fill-rule="nonzero"/></g><g clip-path="url(#8f036b8dc5)"><path fill="#000000" d="M 376.472656 135.53125 L 383.066406 136.71875 C 384.792969 139.199219 386.089844 140.691406 386.957031 141.199219 L 388.035156 141.753906 C 388.195312 141.84375 388.535156 141.953125 389.050781 142.085938 C 389.410156 142.175781 390.542969 142.28125 392.449219 142.398438 C 392.855469 142.457031 393.296875 142.589844 393.769531 142.796875 C 394.351562 143.078125 395.226562 143.910156 396.394531 145.28125 C 394.761719 144.144531 391.945312 143.507812 387.945312 143.371094 C 386.375 143.394531 385.242188 143.519531 384.546875 143.746094 C 384.085938 143.878906 383.6875 144.023438 383.355469 144.175781 C 383.117188 144.285156 382.574219 144.585938 381.734375 145.074219 C 381.515625 145.171875 381.390625 145.214844 381.351562 145.203125 C 381.222656 145.160156 381.183594 145.066406 381.238281 144.917969 L 382.089844 143.71875 C 381.777344 143.597656 381.113281 143.894531 380.085938 144.609375 C 380.027344 144.601562 379.992188 144.566406 379.992188 144.503906 C 380.003906 144.378906 380.046875 144.257812 380.113281 144.144531 C 380.523438 143.554688 380.90625 143.136719 381.261719 142.890625 C 381.441406 142.734375 382.152344 142.4375 383.402344 142 C 383.542969 141.925781 383.585938 141.824219 383.53125 141.691406 C 383.453125 141.542969 383.339844 141.40625 383.191406 141.285156 C 381.785156 140.246094 380.136719 138.941406 378.25 137.367188 C 377.703125 136.867188 377.113281 136.253906 376.472656 135.53125 " fill-opacity="1" fill-rule="nonzero"/></g><g clip-path="url(#66b75245c4)"><path fill="#820303" d="M 394.410156 82.578125 L 394.269531 82.585938 C 394.09375 82.597656 393.945312 82.640625 393.828125 82.707031 L 393.085938 83.292969 C 393.140625 83.640625 393.945312 84.277344 395.503906 85.207031 L 393.808594 86.003906 C 394.914062 86.691406 395.417969 87.089844 395.316406 87.207031 C 395.328125 87.273438 395.296875 87.324219 395.230469 87.359375 L 393.398438 87.847656 C 395.386719 88.417969 396.457031 88.816406 396.605469 89.046875 C 395.265625 89.367188 394.640625 89.683594 394.730469 89.992188 C 396.914062 90.890625 397.964844 91.503906 397.878906 91.828125 L 395.515625 93.46875 L 397.972656 94.722656 C 394.78125 96.285156 390 100.871094 383.621094 108.480469 L 368.976562 119.273438 L 363.929688 124.230469 C 361.035156 127.207031 358.757812 129.820312 357.105469 132.070312 C 356.890625 132.375 358.160156 132.046875 360.910156 131.089844 L 360.378906 132.757812 C 358.683594 133.621094 357.585938 134.230469 357.089844 134.589844 C 355.632812 136.480469 354.246094 137.773438 352.933594 138.460938 L 327.832031 150.0625 C 327.460938 151.128906 328.285156 151.855469 330.304688 152.242188 C 333.265625 151.808594 336.535156 150.804688 340.113281 149.230469 L 364.496094 137.992188 L 366.386719 137.488281 C 368.984375 136.878906 370.730469 136.566406 371.632812 136.554688 C 376.796875 137.421875 381.109375 137.800781 384.570312 137.691406 C 386.746094 137.609375 389.050781 137.207031 391.480469 136.492188 C 398.074219 134.375 403.121094 131.292969 406.621094 127.253906 C 409.703125 123.6875 411.648438 120.40625 412.457031 117.410156 C 413.34375 115.140625 413.484375 110.949219 412.882812 104.84375 C 413.011719 104.617188 413.289062 104.476562 413.714844 104.421875 C 416.089844 104.578125 417.707031 104.53125 418.570312 104.289062 C 419.378906 104.105469 419.773438 103.695312 419.757812 103.054688 C 419.539062 101.898438 417.300781 100.046875 413.050781 97.5 C 413 95.632812 410.949219 92.855469 406.890625 89.164062 C 399.40625 84.3125 395.246094 82.117188 394.410156 82.578125 " fill-opacity="1" fill-rule="nonzero"/></g><g fill="#a6a6a6" fill-opacity="1"><g transform="translate(357.893979, 291.193664)"><g><path d="M 28.703125 0 C 24.117188 0 20.03125 -0.984375 16.4375 -2.953125 C 12.84375 -4.921875 10 -7.570312 7.90625 -10.90625 C 5.820312 -14.25 4.78125 -18.003906 4.78125 -22.171875 C 4.78125 -26.347656 5.820312 -30.101562 7.90625 -33.4375 C 10 -36.769531 12.84375 -39.421875 16.4375 -41.390625 C 20.03125 -43.367188 24.117188 -44.359375 28.703125 -44.359375 L 33.5625 -44.359375 L 33.5625 -40.703125 L 28.171875 -40.703125 C 24.691406 -40.703125 21.503906 -39.875 18.609375 -38.21875 C 15.710938 -36.570312 13.378906 -34.351562 11.609375 -31.5625 C 9.835938 -28.78125 8.953125 -25.648438 8.953125 -22.171875 C 8.953125 -18.691406 9.835938 -15.5625 11.609375 -12.78125 C 13.378906 -10 15.710938 -7.78125 18.609375 -6.125 C 21.503906 -4.476562 24.691406 -3.65625 28.171875 -3.65625 L 33.5625 -3.65625 L 33.5625 0 Z M 28.703125 0 "/></g></g></g><g fill="#a6a6a6" fill-opacity="1"><g transform="translate(391.195621, 291.193664)"><g><path d="M 7.046875 0 L 7.046875 -63.484375 L 11.125 -63.484375 L 11.125 0 Z M 7.046875 0 "/></g></g></g><g fill="#a6a6a6" fill-opacity="1"><g transform="translate(406.150591, 291.193664)"><g><path d="M 26.875 1.125 C 23.445312 1.125 20.210938 0.359375 17.171875 -1.171875 C 14.128906 -2.710938 11.679688 -4.929688 9.828125 -7.828125 C 7.972656 -10.722656 7.046875 -14.257812 7.046875 -18.4375 L 7.046875 -44.359375 L 11.21875 -44.359375 L 11.21875 -18.703125 C 11.21875 -15.222656 11.96875 -12.265625 13.46875 -9.828125 C 14.976562 -7.390625 16.921875 -5.5625 19.296875 -4.34375 C 21.679688 -3.125 24.175781 -2.515625 26.78125 -2.515625 C 29.507812 -2.515625 32.078125 -3.140625 34.484375 -4.390625 C 36.890625 -5.640625 38.84375 -7.46875 40.34375 -9.875 C 41.851562 -12.28125 42.609375 -15.222656 42.609375 -18.703125 L 42.609375 -44.359375 L 46.796875 -44.359375 L 46.796875 -18.4375 C 46.796875 -14.257812 45.863281 -10.722656 44 -7.828125 C 42.144531 -4.929688 39.707031 -2.710938 36.6875 -1.171875 C 33.675781 0.359375 30.40625 1.125 26.875 1.125 Z M 26.875 1.125 "/></g></g></g><g fill="#a6a6a6" fill-opacity="1"><g transform="translate(456.755508, 291.193664)"><g><path d="M 29.046875 1.125 C 25.222656 1.125 21.628906 0.253906 18.265625 -1.484375 C 14.898438 -3.222656 12.171875 -5.800781 10.078125 -9.21875 C 7.992188 -12.632812 6.953125 -16.835938 6.953125 -21.828125 L 6.953125 -63.484375 L 11.046875 -63.484375 L 11.046875 -34 L 11.3125 -34 C 12.351562 -36.207031 13.785156 -38.164062 15.609375 -39.875 C 17.429688 -41.582031 19.546875 -42.925781 21.953125 -43.90625 C 24.359375 -44.894531 26.867188 -45.390625 29.484375 -45.390625 C 33.367188 -45.390625 36.960938 -44.476562 40.265625 -42.65625 C 43.566406 -40.832031 46.234375 -38.207031 48.265625 -34.78125 C 50.296875 -31.363281 51.3125 -27.21875 51.3125 -22.34375 C 51.3125 -18.519531 50.703125 -15.144531 49.484375 -12.21875 C 48.265625 -9.289062 46.609375 -6.835938 44.515625 -4.859375 C 42.429688 -2.890625 40.054688 -1.398438 37.390625 -0.390625 C 34.722656 0.617188 31.941406 1.125 29.046875 1.125 Z M 28.953125 -2.515625 C 32.085938 -2.515625 35.03125 -3.269531 37.78125 -4.78125 C 40.539062 -6.289062 42.789062 -8.507812 44.53125 -11.4375 C 46.269531 -14.363281 47.140625 -17.941406 47.140625 -22.171875 C 47.140625 -26.234375 46.28125 -29.726562 44.5625 -32.65625 C 42.851562 -35.582031 40.632812 -37.828125 37.90625 -39.390625 C 35.1875 -40.960938 32.265625 -41.75 29.140625 -41.75 C 26.066406 -41.75 23.148438 -40.992188 20.390625 -39.484375 C 17.640625 -37.972656 15.40625 -35.753906 13.6875 -32.828125 C 11.976562 -29.898438 11.125 -26.289062 11.125 -22 C 11.125 -17.769531 11.960938 -14.203125 13.640625 -11.296875 C 15.328125 -8.398438 17.53125 -6.210938 20.25 -4.734375 C 22.976562 -3.253906 25.878906 -2.515625 28.953125 -2.515625 Z M 28.953125 -2.515625 "/></g></g></g><g fill="#000000" fill-opacity="1"><g transform="translate(110.412598, 226.874809)"><g><path d="M 11.28125 0 L 11.28125 -52.59375 C 11.28125 -59.539062 12.957031 -65.90625 16.3125 -71.6875 C 19.675781 -77.476562 24.507812 -82.078125 30.8125 -85.484375 C 37.125 -88.898438 44.734375 -90.609375 53.640625 -90.609375 C 57.921875 -90.609375 61.882812 -90.117188 65.53125 -89.140625 C 69.175781 -88.160156 72.5625 -86.742188 75.6875 -84.890625 C 78.8125 -83.035156 81.53125 -80.835938 83.84375 -78.296875 L 84.015625 -78.296875 C 86.453125 -80.835938 89.226562 -83.035156 92.34375 -84.890625 C 95.46875 -86.742188 98.882812 -88.160156 102.59375 -89.140625 C 106.300781 -90.117188 110.296875 -90.609375 114.578125 -90.609375 C 123.484375 -90.609375 131.085938 -88.898438 137.390625 -85.484375 C 143.703125 -82.078125 148.535156 -77.476562 151.890625 -71.6875 C 155.242188 -65.90625 156.921875 -59.539062 156.921875 -52.59375 L 156.921875 0 L 133.140625 0 L 133.140625 -52.59375 C 133.140625 -55.832031 132.300781 -58.78125 130.625 -61.4375 C 128.945312 -64.101562 126.71875 -66.25 123.9375 -67.875 C 121.164062 -69.5 118.046875 -70.3125 114.578125 -70.3125 C 111.210938 -70.3125 108.113281 -69.5 105.28125 -67.875 C 102.445312 -66.25 100.191406 -64.101562 98.515625 -61.4375 C 96.835938 -58.78125 96 -55.832031 96 -52.59375 L 96 0 L 72.21875 0 L 72.21875 -52.59375 C 72.21875 -55.832031 71.378906 -58.78125 69.703125 -61.4375 C 68.023438 -64.101562 65.796875 -66.25 63.015625 -67.875 C 60.234375 -69.5 57.109375 -70.3125 53.640625 -70.3125 C 50.285156 -70.3125 47.1875 -69.5 44.34375 -67.875 C 41.507812 -66.25 39.253906 -64.101562 37.578125 -61.4375 C 35.898438 -58.78125 35.0625 -55.832031 35.0625 -52.59375 L 35.0625 0 Z M 11.28125 0 "/></g></g></g><g clip-path="url(#a4185ff440)"><path fill="#000000" d="M 151.714844 106.292969 L 152.003906 106.320312 C 153.253906 106.390625 154.386719 106.816406 155.40625 107.585938 C 157.113281 109.179688 158.207031 110.691406 158.695312 112.125 L 161.890625 113.214844 C 159.765625 114.191406 158.539062 115.136719 158.207031 116.050781 L 157.789062 116.875 C 157.136719 119.265625 156.546875 121.242188 156.023438 122.808594 C 155.40625 124.4375 154.808594 125.84375 154.230469 127.019531 C 152.679688 130.039062 151.113281 132.242188 149.539062 133.628906 C 147.359375 135.730469 143.960938 137.210938 139.34375 138.070312 C 138.378906 138.273438 136.761719 138.398438 134.5 138.441406 C 131.734375 138.441406 128.78125 138.28125 125.636719 137.964844 L 124.492188 138.144531 C 123.5 138.394531 121.785156 139.085938 119.34375 140.21875 C 118.824219 140.355469 118.453125 140.382812 118.226562 140.300781 C 110.902344 144.566406 106.671875 146.660156 105.53125 146.585938 C 105.308594 146.550781 105.40625 146.34375 105.828125 145.957031 L 105.070312 146.035156 C 105.429688 145.394531 105.371094 145.023438 104.890625 144.914062 C 106.765625 144 108.621094 143.015625 110.453125 141.960938 C 114.996094 139.199219 117.695312 137.457031 118.550781 136.738281 C 121.730469 134.535156 125.53125 131.390625 129.953125 127.308594 C 132.761719 124.65625 135.402344 121.910156 137.871094 119.074219 C 140.078125 116.617188 142.640625 113.308594 145.5625 109.148438 L 146.46875 108.277344 C 147.605469 107.027344 149.355469 106.367188 151.714844 106.292969 " fill-opacity="1" fill-rule="nonzero"/></g><g clip-path="url(#26bccfed29)"><path fill="#000000" d="M 134.1875 135.53125 L 140.785156 136.71875 C 142.507812 139.199219 143.804688 140.691406 144.675781 141.199219 L 145.753906 141.753906 C 145.914062 141.84375 146.25 141.953125 146.769531 142.085938 C 147.125 142.175781 148.257812 142.28125 150.164062 142.398438 C 150.574219 142.457031 151.015625 142.589844 151.488281 142.796875 C 152.070312 143.078125 152.945312 143.910156 154.113281 145.28125 C 152.480469 144.144531 149.660156 143.507812 145.664062 143.371094 C 144.089844 143.394531 142.957031 143.519531 142.265625 143.746094 C 141.800781 143.878906 141.40625 144.023438 141.074219 144.175781 C 140.835938 144.285156 140.292969 144.585938 139.449219 145.074219 C 139.234375 145.171875 139.105469 145.214844 139.066406 145.203125 C 138.9375 145.160156 138.902344 145.066406 138.957031 144.917969 L 139.804688 143.71875 C 139.496094 143.597656 138.828125 143.894531 137.804688 144.609375 C 137.742188 144.601562 137.710938 144.566406 137.707031 144.503906 C 137.722656 144.378906 137.765625 144.257812 137.832031 144.144531 C 138.242188 143.554688 138.625 143.136719 138.976562 142.890625 C 139.15625 142.734375 139.871094 142.4375 141.121094 142 C 141.261719 141.925781 141.304688 141.824219 141.25 141.691406 C 141.171875 141.542969 141.058594 141.40625 140.910156 141.285156 C 139.5 140.246094 137.855469 138.941406 135.96875 137.367188 C 135.421875 136.867188 134.828125 136.253906 134.1875 135.53125 " fill-opacity="1" fill-rule="nonzero"/></g><g clip-path="url(#252153e3f7)"><path fill="#820303" d="M 152.128906 82.578125 L 151.988281 82.585938 C 151.808594 82.597656 151.664062 82.640625 151.546875 82.707031 L 150.804688 83.292969 C 150.859375 83.640625 151.664062 84.277344 153.21875 85.207031 L 151.523438 86.003906 C 152.632812 86.691406 153.136719 87.089844 153.035156 87.207031 C 153.042969 87.273438 153.015625 87.324219 152.949219 87.359375 L 151.113281 87.847656 C 153.105469 88.417969 154.171875 88.816406 154.320312 89.046875 C 152.984375 89.367188 152.359375 89.683594 152.449219 89.992188 C 154.632812 90.890625 155.679688 91.503906 155.597656 91.828125 L 153.234375 93.46875 L 155.691406 94.722656 C 152.5 96.285156 147.714844 100.871094 141.335938 108.480469 L 126.695312 119.273438 L 121.648438 124.230469 C 118.75 127.207031 116.476562 129.820312 114.820312 132.070312 C 114.609375 132.375 115.875 132.046875 118.625 131.089844 L 118.097656 132.757812 C 116.402344 133.621094 115.304688 134.230469 114.808594 134.589844 C 113.347656 136.480469 111.960938 137.773438 110.648438 138.460938 L 85.546875 150.0625 C 85.175781 151.128906 86 151.855469 88.019531 152.242188 C 90.980469 151.808594 94.25 150.804688 97.832031 149.230469 L 122.214844 137.992188 L 124.105469 137.488281 C 126.699219 136.878906 128.449219 136.566406 129.351562 136.554688 C 134.515625 137.421875 138.828125 137.800781 142.289062 137.691406 C 144.464844 137.609375 146.769531 137.207031 149.199219 136.492188 C 155.792969 134.375 160.839844 131.292969 164.339844 127.253906 C 167.421875 123.6875 169.367188 120.40625 170.171875 117.410156 C 171.058594 115.140625 171.203125 110.949219 170.601562 104.84375 C 170.726562 104.617188 171.003906 104.476562 171.429688 104.421875 C 173.804688 104.578125 175.425781 104.53125 176.289062 104.289062 C 177.09375 104.105469 177.492188 103.695312 177.476562 103.054688 C 177.253906 101.898438 175.019531 100.046875 170.765625 97.5 C 170.71875 95.632812 168.667969 92.855469 164.609375 89.164062 C 157.121094 84.3125 152.960938 82.117188 152.128906 82.578125 " fill-opacity="1" fill-rule="nonzero"/></g><g fill="#000000" fill-opacity="1"><g transform="translate(115.611247, 291.193664)"><g><path d="M 28.703125 0 C 24.117188 0 20.03125 -0.984375 16.4375 -2.953125 C 12.84375 -4.921875 10 -7.570312 7.90625 -10.90625 C 5.820312 -14.25 4.78125 -18.003906 4.78125 -22.171875 C 4.78125 -26.347656 5.820312 -30.101562 7.90625 -33.4375 C 10 -36.769531 12.84375 -39.421875 16.4375 -41.390625 C 20.03125 -43.367188 24.117188 -44.359375 28.703125 -44.359375 L 33.5625 -44.359375 L 33.5625 -40.703125 L 28.171875 -40.703125 C 24.691406 -40.703125 21.503906 -39.875 18.609375 -38.21875 C 15.710938 -36.570312 13.378906 -34.351562 11.609375 -31.5625 C 9.835938 -28.78125 8.953125 -25.648438 8.953125 -22.171875 C 8.953125 -18.691406 9.835938 -15.5625 11.609375 -12.78125 C 13.378906 -10 15.710938 -7.78125 18.609375 -6.125 C 21.503906 -4.476562 24.691406 -3.65625 28.171875 -3.65625 L 33.5625 -3.65625 L 33.5625 0 Z M 28.703125 0 "/></g></g></g><g fill="#000000" fill-opacity="1"><g transform="translate(148.912889, 291.193664)"><g><path d="M 7.046875 0 L 7.046875 -63.484375 L 11.125 -63.484375 L 11.125 0 Z M 7.046875 0 "/></g></g></g><g fill="#000000" fill-opacity="1"><g transform="translate(163.867859, 291.193664)"><g><path d="M 26.875 1.125 C 23.445312 1.125 20.210938 0.359375 17.171875 -1.171875 C 14.128906 -2.710938 11.679688 -4.929688 9.828125 -7.828125 C 7.972656 -10.722656 7.046875 -14.257812 7.046875 -18.4375 L 7.046875 -44.359375 L 11.21875 -44.359375 L 11.21875 -18.703125 C 11.21875 -15.222656 11.96875 -12.265625 13.46875 -9.828125 C 14.976562 -7.390625 16.921875 -5.5625 19.296875 -4.34375 C 21.679688 -3.125 24.175781 -2.515625 26.78125 -2.515625 C 29.507812 -2.515625 32.078125 -3.140625 34.484375 -4.390625 C 36.890625 -5.640625 38.84375 -7.46875 40.34375 -9.875 C 41.851562 -12.28125 42.609375 -15.222656 42.609375 -18.703125 L 42.609375 -44.359375 L 46.796875 -44.359375 L 46.796875 -18.4375 C 46.796875 -14.257812 45.863281 -10.722656 44 -7.828125 C 42.144531 -4.929688 39.707031 -2.710938 36.6875 -1.171875 C 33.675781 0.359375 30.40625 1.125 26.875 1.125 Z M 26.875 1.125 "/></g></g></g><g fill="#000000" fill-opacity="1"><g transform="translate(214.472776, 291.193664)"><g><path d="M 29.046875 1.125 C 25.222656 1.125 21.628906 0.253906 18.265625 -1.484375 C 14.898438 -3.222656 12.171875 -5.800781 10.078125 -9.21875 C 7.992188 -12.632812 6.953125 -16.835938 6.953125 -21.828125 L 6.953125 -63.484375 L 11.046875 -63.484375 L 11.046875 -34 L 11.3125 -34 C 12.351562 -36.207031 13.785156 -38.164062 15.609375 -39.875 C 17.429688 -41.582031 19.546875 -42.925781 21.953125 -43.90625 C 24.359375 -44.894531 26.867188 -45.390625 29.484375 -45.390625 C 33.367188 -45.390625 36.960938 -44.476562 40.265625 -42.65625 C 43.566406 -40.832031 46.234375 -38.207031 48.265625 -34.78125 C 50.296875 -31.363281 51.3125 -27.21875 51.3125 -22.34375 C 51.3125 -18.519531 50.703125 -15.144531 49.484375 -12.21875 C 48.265625 -9.289062 46.609375 -6.835938 44.515625 -4.859375 C 42.429688 -2.890625 40.054688 -1.398438 37.390625 -0.390625 C 34.722656 0.617188 31.941406 1.125 29.046875 1.125 Z M 28.953125 -2.515625 C 32.085938 -2.515625 35.03125 -3.269531 37.78125 -4.78125 C 40.539062 -6.289062 42.789062 -8.507812 44.53125 -11.4375 C 46.269531 -14.363281 47.140625 -17.941406 47.140625 -22.171875 C 47.140625 -26.234375 46.28125 -29.726562 44.5625 -32.65625 C 42.851562 -35.582031 40.632812 -37.828125 37.90625 -39.390625 C 35.1875 -40.960938 32.265625 -41.75 29.140625 -41.75 C 26.066406 -41.75 23.148438 -40.992188 20.390625 -39.484375 C 17.640625 -37.972656 15.40625 -35.753906 13.6875 -32.828125 C 11.976562 -29.898438 11.125 -26.289062 11.125 -22 C 11.125 -17.769531 11.960938 -14.203125 13.640625 -11.296875 C 15.328125 -8.398438 17.53125 -6.210938 20.25 -4.734375 C 22.976562 -3.253906 25.878906 -2.515625 28.953125 -2.515625 Z M 28.953125 -2.515625 "/></g></g></g></svg>